<svg xmlns="http://www.w3.org/2000/svg" xmlns:svg="http://www.w3.org/2000/svg" id="svg2" width="1814.173" height="1814.173" version="1.0"><metadata id="metadata10"/><g id="g3778" fill="#000" transform="translate(-1.1132812e-6,3.5121075)"><g id="g3758" fill="#000" transform="translate(113.38581,-805.88754)"><path id="path4165" fill="#000" fill-opacity="1" fill-rule="evenodd" stroke="none" d="m 0,1480.408 0,242.2189 1587.4016,-1.0143 -1.9856,-242.3203 L 0,1480.408 z m 1572.4576,2.6372 0.4179,56.7004 -1547.794774,1.065 0,-56.7003 1547.376874,-1.0651 z m 0.5226,60.4533 0.4179,53.0995 -1548.317374,1.0651 0,-53.0995 1547.899474,-1.0651 z m 0.4179,56.8525 0.4181,55.0267 -1548.735474,1.0651 0,-55.0268 1548.317374,-1.065 z m 0.4181,58.729 0.5226,58.7289 -1549.258074,1.0651 0,-58.729 1548.735474,-1.065 z"/><path id="path2221" fill="#000" fill-opacity="1" fill-rule="nonzero" stroke="none" d="m 95.52475,1795.7603 c 0,0 20.63702,-11.9642 18.99502,-30.8473 -1.64201,-18.8831 -13.13604,-26.2721 -28.7351,-24.6301 -15.599072,1.642 -26.272102,16.4201 -23.809092,32.8401 2.46302,16.4201 23.809092,41.0502 48.439172,41.0502 24.63009,0 43.51315,-11.4941 50.90218,-32.8401 7.38903,-21.3461 9.03103,-26.2721 6.56802,-64.0383 -2.46301,-37.7661 -11.37462,-105.7899 -21.22665,-141.093 -9.85204,-35.3032 -21.96954,-86.9042 -18.77112,-103.7673 3.00022,-15.8182 21.28466,-58.1488 32.13853,-64.1876 0,0 13.60626,29.907 4.57524,48.79 -9.03104,18.8831 -36.12413,56.6492 -55.82821,75.5323 -19.70406,18.8831 -51.491802,45.297 -52.312812,92.8703 -0.56269,32.8456 28.503742,68.0462 40.818782,77.8983 12.31504,9.852 49.26017,21.3461 81.27927,8.21 32.01912,-13.136 46.79717,-32.8401 49.26017,-63.2172 2.46303,-30.3771 -22.16706,-67.3222 -51.72317,-72.2483 -29.5561,-4.926 -60.6566,9.9965 -73.06926,36.9452 -14.81395,32.162 9.36667,65.3358 13.95705,63.2172 l 0.82101,-6.568 c -2.72145,-1.3608 -18.77019,-32.4735 14.41979,-50.3126 27.48267,-14.7714 62.07074,2.0228 63.80685,37.7363 0.77443,15.9307 -10.54377,48.691 -48.67054,49.5214 -45.1368,0.9754 -67.32224,-35.3031 -66.50123,-60.7542 0.821,-25.4511 7.38902,-49.2602 44.33415,-87.0263 36.94513,-37.7662 55.00719,-63.2172 51.72319,-113.2984 -3.28402,-50.0811 -24.98836,-68.2626 -24.98836,-68.2626 0,-2.113 -40.34109,29.0084 -41.16209,71.7929 -0.77197,40.2301 21.81629,109.7681 34.95233,195.9734 13.13606,86.2053 14.77806,131.3604 -2.46301,146.1385 -17.24105,14.778 -34.51198,16.6216 -47.73011,4.5752 z"/></g><text font-stretch="normal" style="line-height:125%;-inkscape-font-specification:Transuranium" id="text3762" x="319.604" y="1210.882" fill="#000" fill-opacity="1" stroke="none" font-family="Transuranium" font-size="40" font-style="normal" font-variant="normal" font-weight="normal" letter-spacing="0" word-spacing="0" writing-mode="lr-tb" xml:space="preserve"><tspan id="tspan3764" x="319.604" y="1210.882" fill="#000" font-family="AppleMyungjo" font-size="128" font-stretch="normal" font-style="normal" font-variant="normal" font-weight="bold" style="-inkscape-font-specification:AppleMyungjo Bold">Enjoy The Silence...</tspan></text></g></svg>